<?xml version="1.0" standalone="no"?>
<!DOCTYPE svg PUBLIC "-//W3C//DTD SVG 20010904//EN"
 "http://www.w3.org/TR/2001/REC-SVG-20010904/DTD/svg10.dtd">
<svg version="1.0" xmlns="http://www.w3.org/2000/svg"
 width="260.000000pt" height="260.000000pt" viewBox="0 0 260.000000 260.000000"
 preserveAspectRatio="xMidYMid meet">
<metadata>
Created by potrace 1.14, written by Peter Selinger 2001-2017
</metadata>
<g transform="translate(0.000000,260.000000) scale(0.100000,-0.100000)"
fill="#000000" stroke="none">
<path d="M120 2581 c-38 -15 -73 -47 -90 -80 -17 -35 -18 -89 -18 -1202 l0
-1167 22 -38 c13 -25 37 -47 63 -60 l42 -22 1162 1 1161 0 41 22 c23 12 51 37
62 56 20 34 20 50 21 1203 1 1166 1 1168 -20 1209 -12 24 -36 50 -56 62 -35
20 -50 20 -1205 21 -643 1 -1177 -1 -1185 -5z"/>
</g>
</svg>
