<svg id="Layer_1" data-name="Layer 1" xmlns="http://www.w3.org/2000/svg" xmlns:xlink="http://www.w3.org/1999/xlink" viewBox="0 0 169 40"><defs><style>.cls-1,.cls-6{fill:#3970b7;}.cls-2{fill:url(#linear-gradient);}.cls-3{fill:#fff;}.cls-4{fill:url(#linear-gradient-2);}.cls-5{font-size:110px;fill:#262728;font-family:CenturyGothic, Century Gothic;}.cls-6{font-size:55px;font-family:Nunito-Light, Nunito;font-weight:300;}.cls-7{letter-spacing:0.01em;}</style><linearGradient id="linear-gradient" x1="24.24" y1="82.78" x2="152" y2="82.78" gradientTransform="translate(155.72 -17.47) rotate(80.78)" gradientUnits="userSpaceOnUse"><stop offset="0.26" stop-color="#008ece"/><stop offset="0.58" stop-color="#187dc1"/><stop offset="1" stop-color="#3e62ae"/></linearGradient><linearGradient id="linear-gradient-2" x1="62.84" y1="86.34" x2="93.52" y2="86.34" gradientUnits="userSpaceOnUse"><stop offset="0.01" stop-color="#c9e9ea"/><stop offset="0.23" stop-color="#c6e6e9"/><stop offset="0.39" stop-color="#bcdde5"/><stop offset="0.54" stop-color="#accdde"/><stop offset="0.68" stop-color="#95b7d4"/><stop offset="0.81" stop-color="#789ac7"/><stop offset="0.94" stop-color="#5477b7"/><stop offset="1" stop-color="#3e62ae"/></linearGradient></defs><circle class="cls-1" cx="88.12" cy="82.78" r="63.88" transform="translate(-7.7 156.5) rotate(-80.78)"/><circle class="cls-2" cx="88.12" cy="82.78" r="63.88" transform="translate(-7.7 156.5) rotate(-80.78)"/><path class="cls-3" d="M75.61,73.8,90.94,87.39a7.7,7.7,0,0,1,.65,10.84h0a7.7,7.7,0,0,1-10.84.66L65.42,85.3a7.7,7.7,0,0,1-.66-10.84h0A7.72,7.72,0,0,1,75.61,73.8Z"/><path class="cls-4" d="M75.61,73.8,90.94,87.39a7.7,7.7,0,0,1,.65,10.84h0a7.7,7.7,0,0,1-10.84.66L65.42,85.3a7.7,7.7,0,0,1-.66-10.84h0A7.72,7.72,0,0,1,75.61,73.8Z"/><path class="cls-3" d="M111.5,78.55,94.37,97.45a9.58,9.58,0,0,1-13.51.67h0a9.59,9.59,0,0,1-.67-13.51l17.13-18.9A9.58,9.58,0,0,1,110.83,65h0A9.59,9.59,0,0,1,111.5,78.55Z"/><path class="cls-1" d="M168.21,88.44a4.14,4.14,0,1,1-4.14-4.14A4.14,4.14,0,0,1,168.21,88.44Z"/><path class="cls-1" d="M92.43,10.53a4.14,4.14,0,1,1-4.14-4.14A4.14,4.14,0,0,1,92.43,10.53Z"/><circle class="cls-1" cx="15.44" cy="88.44" r="4.14"/><text class="cls-5" transform="translate(171.3 123.62)">Afya</text><text class="cls-6" transform="translate(392.85 49.67)"><tspan class="cls-7">T</tspan><tspan x="33.38" y="0">ime</tspan></text></svg>
