<svg id="Layer_1" data-name="Layer 1" xmlns="http://www.w3.org/2000/svg" xmlns:xlink="http://www.w3.org/1999/xlink" viewBox="0 0 676 160"><defs><style>.cls-1{fill:url(#linear-gradient);}.cls-2{fill:url(#linear-gradient-2);}.cls-3{fill:url(#linear-gradient-3);}.cls-4{fill:url(#linear-gradient-4);}.cls-5{fill:url(#linear-gradient-5);}.cls-6{fill:url(#linear-gradient-6);}.cls-7{fill:url(#linear-gradient-7);}.cls-8{fill:url(#linear-gradient-8);}.cls-9{fill:url(#linear-gradient-9);}.cls-10{fill:url(#linear-gradient-10);}.cls-11{fill:url(#linear-gradient-11);}.cls-12{fill:url(#linear-gradient-12);}.cls-13{fill:url(#linear-gradient-13);}.cls-14{fill:url(#linear-gradient-14);}.cls-15{fill:url(#linear-gradient-15);}.cls-16{fill:url(#linear-gradient-16);}.cls-17{fill:url(#linear-gradient-17);}.cls-18{fill:url(#linear-gradient-18);}.cls-19{fill:url(#linear-gradient-19);}.cls-20{fill:url(#linear-gradient-20);}.cls-21{fill:url(#linear-gradient-21);}.cls-22{fill:url(#linear-gradient-22);}.cls-23{fill:url(#linear-gradient-23);}.cls-24{fill:url(#linear-gradient-24);}.cls-25{fill:none;stroke-linecap:round;stroke-linejoin:round;stroke-width:2.09px;stroke:url(#linear-gradient-25);}.cls-26{font-size:110px;fill:#262727;font-family:CenturyGothic, Century Gothic;}.cls-27{font-size:55px;fill:#0073ff;font-family:Nunito-Light, Nunito;font-weight:300;}.cls-28{letter-spacing:0.01em;}</style><linearGradient id="linear-gradient" x1="119.61" y1="-16.31" x2="117.55" y2="36" gradientTransform="translate(-28.37 22.03) rotate(-0.38)" gradientUnits="userSpaceOnUse"><stop offset="0.26" stop-color="#0097ff"/><stop offset="0.56" stop-color="#007fff"/><stop offset="1" stop-color="#0054ff"/></linearGradient><linearGradient id="linear-gradient-2" x1="119.89" y1="91.17" x2="117.82" y2="143.48" xlink:href="#linear-gradient"/><linearGradient id="linear-gradient-3" x1="6099.92" y1="-109.34" x2="6097.85" y2="-57.03" gradientTransform="translate(-1951.7 5827.81) rotate(-69.1)" xlink:href="#linear-gradient"/><linearGradient id="linear-gradient-4" x1="-1941.21" y1="4087.95" x2="-1943.27" y2="4140.26" gradientTransform="translate(4558.15 -984.91) rotate(51.56)" xlink:href="#linear-gradient"/><linearGradient id="linear-gradient-5" x1="-706.3" y1="771.78" x2="-707.72" y2="807.69" gradientTransform="translate(957.22 -587.88) rotate(12.08)" xlink:href="#linear-gradient"/><linearGradient id="linear-gradient-6" x1="-1297.51" y1="1623.92" x2="-1298.92" y2="1659.83" gradientTransform="translate(1954.01 -950.22) rotate(23.46)" xlink:href="#linear-gradient"/><linearGradient id="linear-gradient-7" x1="-1692.57" y1="2533.02" x2="-1693.99" y2="2568.93" gradientTransform="matrix(0.83, 0.56, -0.56, 0.83, 2954.96, -1106.91)" xlink:href="#linear-gradient"/><linearGradient id="linear-gradient-8" x1="-1826.08" y1="5332.56" x2="-1827.5" y2="5368.48" gradientTransform="translate(5753.36 -524.87) rotate(65.18)" xlink:href="#linear-gradient"/><linearGradient id="linear-gradient-9" x1="-1357.97" y1="6619.14" x2="-1359.39" y2="6655.05" gradientTransform="translate(6904.62 264.58) rotate(80.05)" xlink:href="#linear-gradient"/><linearGradient id="linear-gradient-10" x1="-810.18" y1="7465.49" x2="-811.6" y2="7501.4" gradientTransform="matrix(-0.02, 1, -1, -0.02, 7601.21, 1016.92)" xlink:href="#linear-gradient"/><linearGradient id="linear-gradient-11" x1="2659.39" y1="9516.85" x2="2657.97" y2="9552.77" gradientTransform="translate(8704.31 5036.67) rotate(135.47)" xlink:href="#linear-gradient"/><linearGradient id="linear-gradient-12" x1="4130.06" y1="9492.14" x2="4128.64" y2="9528.05" gradientTransform="translate(8316.4 6455.36) rotate(151.19)" xlink:href="#linear-gradient"/><linearGradient id="linear-gradient-13" x1="5611.41" y1="9049.43" x2="5609.99" y2="9085.34" gradientTransform="translate(7505.72 7792.8) rotate(167.79)" xlink:href="#linear-gradient"/><linearGradient id="linear-gradient-14" x1="8410.33" y1="5820.09" x2="8408.27" y2="5872.4" gradientTransform="matrix(-0.37, -0.93, -0.93, 0.37, 8574.24, 5757.77)" xlink:href="#linear-gradient"/><linearGradient id="linear-gradient-15" x1="1981.6" y1="-922.59" x2="1979.54" y2="-870.27" gradientTransform="matrix(-0.61, 0.79, 0.79, 0.61, 1973.55, -968.47)" xlink:href="#linear-gradient"/><linearGradient id="linear-gradient-16" x1="5507.09" y1="-602.53" x2="5505.67" y2="-566.62" gradientTransform="matrix(-0.97, 0.22, 0.22, 0.97, 5579.75, -618.74)" xlink:href="#linear-gradient"/><linearGradient id="linear-gradient-17" x1="4522.77" y1="-949.97" x2="4521.36" y2="-914.06" gradientTransform="matrix(-0.91, 0.41, 0.41, 0.91, 4578.25, -967.29)" xlink:href="#linear-gradient"/><linearGradient id="linear-gradient-18" x1="3537.38" y1="-1091.38" x2="3535.96" y2="-1055.47" gradientTransform="matrix(-0.82, 0.58, 0.58, 0.82, 3574.7, -1110.91)" xlink:href="#linear-gradient"/><linearGradient id="linear-gradient-19" x1="805.9" y1="-461.88" x2="804.48" y2="-425.96" gradientTransform="matrix(-0.41, 0.91, 0.91, 0.41, 785.18, -491.18)" xlink:href="#linear-gradient"/><linearGradient id="linear-gradient-20" x1="-300.98" y1="344.51" x2="-302.4" y2="380.42" gradientTransform="matrix(-0.16, 0.99, 0.99, 0.16, -356.21, 313.06)" xlink:href="#linear-gradient"/><linearGradient id="linear-gradient-21" x1="-958.02" y1="1104.39" x2="-959.44" y2="1140.3" gradientTransform="matrix(0.03, 1, 1, -0.03, -1043.04, 1075.61)" xlink:href="#linear-gradient"/><linearGradient id="linear-gradient-22" x1="-1906.22" y1="5083.58" x2="-1907.64" y2="5119.5" gradientTransform="matrix(0.72, 0.69, 0.69, -0.72, -2091.68, 5109.28)" xlink:href="#linear-gradient"/><linearGradient id="linear-gradient-23" x1="-1464.1" y1="6464.47" x2="-1465.52" y2="6500.38" gradientTransform="matrix(0.88, 0.47, 0.47, -0.88, -1685.44, 6522.8)" xlink:href="#linear-gradient"/><linearGradient id="linear-gradient-24" x1="-611.07" y1="7754.22" x2="-612.49" y2="7790.13" gradientTransform="matrix(0.97, 0.23, 0.23, -0.97, -1074.37, 7827.46)" xlink:href="#linear-gradient"/><linearGradient id="linear-gradient-25" x1="87.09" y1="72.37" x2="98.75" y2="72.37" gradientTransform="matrix(1, 0, 0, 1, 0, 0)" xlink:href="#linear-gradient"/></defs><path class="cls-1" d="M90.66,43.84a1.74,1.74,0,0,1-1.74-1.71L88.68,5a1.72,1.72,0,0,1,3.44,0l.25,37.17A1.74,1.74,0,0,1,90.66,43.84Z"/><path class="cls-2" d="M91.65,151.32a1.72,1.72,0,0,1-1.73-1.71l-.25-37.17a1.72,1.72,0,1,1,3.44,0l.25,37.16A1.72,1.72,0,0,1,91.65,151.32Z"/><path class="cls-3" d="M158.7,104.82a1.72,1.72,0,0,1-2.22,1L121.75,92.55A1.72,1.72,0,0,1,123,89.34L157.7,102.6A1.72,1.72,0,0,1,158.7,104.82Z"/><path class="cls-4" d="M118.27,59.65a1.72,1.72,0,0,1,.27-2.42l29.12-23.11a1.72,1.72,0,1,1,2.14,2.7l-29.12,23.1A1.71,1.71,0,0,1,118.27,59.65Z"/><path class="cls-5" d="M98.91,45c-.93-.2-1.57-.88-1.43-1.52l5.34-25c.13-.64,1-1,1.93-.79s1.57.87,1.43,1.51l-5.34,25C100.7,44.88,99.84,45.24,98.91,45Z"/><path class="cls-6" d="M106.22,47.17c-.87-.38-1.37-1.17-1.11-1.77L115.27,22c.26-.6,1.18-.77,2-.4s1.37,1.17,1.11,1.77L108.27,46.77C108,47.37,107.09,47.55,106.22,47.17Z"/><path class="cls-7" d="M113.13,52c-.78-.53-1.12-1.4-.75-1.94L126.76,29c.37-.54,1.31-.54,2.09,0s1.12,1.41.76,1.95L115.22,52C114.85,52.56,113.92,52.56,113.13,52Z"/><path class="cls-8" d="M122.48,67.15c-.4-.86-.25-1.78.35-2.06L146,54.38c.6-.27,1.4.21,1.8,1.07s.24,1.78-.35,2.06L124.27,68.22C123.68,68.49,122.87,68,122.48,67.15Z"/><path class="cls-9" d="M123.71,74.88c-.16-.94.22-1.79.87-1.9l25.13-4.41c.64-.11,1.29.55,1.46,1.49s-.23,1.79-.87,1.9l-25.13,4.41C124.53,76.48,123.87,75.81,123.71,74.88Z"/><path class="cls-10" d="M123,84.19c0-1,.56-1.71,1.21-1.7l25.51.42c.66,0,1.17.79,1.16,1.74s-.56,1.71-1.21,1.7l-25.51-.42C123.47,85.92,123,85.15,123,84.19Z"/><path class="cls-11" d="M116.84,97.48c.68-.67,1.6-.83,2.06-.37l17.89,18.19c.46.47.28,1.38-.4,2s-1.6.83-2.06.36L116.44,99.52C116,99.06,116.16,98.14,116.84,97.48Z"/><path class="cls-12" d="M110.54,104c.83-.46,1.76-.36,2.07.21l12.3,22.36c.31.57-.11,1.4-.94,1.86s-1.76.37-2.08-.21L109.6,105.89C109.28,105.31,109.7,104.48,110.54,104Z"/><path class="cls-13" d="M102,108.48c.93-.2,1.79.16,1.93.79l5.4,24.94c.13.64-.51,1.32-1.44,1.52s-1.79-.15-1.93-.79L100.59,110C100.45,109.36,101.09,108.68,102,108.48Z"/><path class="cls-14" d="M23.8,106.47a1.73,1.73,0,0,0,2.24,1L60.58,93.7a1.72,1.72,0,0,0-1.27-3.2L24.76,104.23A1.73,1.73,0,0,0,23.8,106.47Z"/><path class="cls-15" d="M63.62,59.37A1.71,1.71,0,0,0,63.3,57L33.88,34.24A1.72,1.72,0,0,0,31.78,37L61.2,59.68A1.72,1.72,0,0,0,63.62,59.37Z"/><path class="cls-16" d="M82.77,44.51c.93-.22,1.56-.9,1.42-1.54L78.51,18.1c-.14-.64-1-1-1.94-.77s-1.56.89-1.41,1.53l5.67,24.88C81,44.37,81.85,44.72,82.77,44.51Z"/><path class="cls-17" d="M75.49,46.73c.87-.39,1.35-1.18,1.08-1.78L66.1,21.68c-.26-.59-1.18-.76-2-.37S62.7,22.5,63,23.1L73.44,46.36C73.7,47,74.62,47.12,75.49,46.73Z"/><path class="cls-18" d="M68.65,51.68c.78-.54,1.1-1.42.73-2L54.71,28.85c-.38-.53-1.31-.52-2.09,0s-1.1,1.43-.73,2L66.56,51.71C66.94,52.24,67.87,52.23,68.65,51.68Z"/><path class="cls-19" d="M59.51,66.93c.38-.87.21-1.78-.38-2.05l-23.3-10.4c-.6-.27-1.39.22-1.78,1.09s-.22,1.79.38,2L57.73,68C58.32,68.29,59.12,67.8,59.51,66.93Z"/><path class="cls-20" d="M58.38,74.68c.15-.94-.25-1.79-.9-1.89L32.3,68.72c-.65-.11-1.29.57-1.44,1.51s.24,1.78.89,1.88l25.19,4.08C57.58,76.29,58.22,75.61,58.38,74.68Z"/><path class="cls-21" d="M59.24,84c0-1-.58-1.7-1.24-1.68l-25.5.75c-.65,0-1.16.81-1.13,1.76s.58,1.7,1.23,1.68l25.51-.75C58.76,85.72,59.26,84.93,59.24,84Z"/><path class="cls-22" d="M65.57,99.93c-.69-.65-1.61-.81-2.06-.33L45.86,118c-.45.47-.26,1.39.42,2s1.61.81,2.06.33L66,102C66.44,101.5,66.25,100.59,65.57,99.93Z"/><path class="cls-23" d="M73.41,105.17c-.84-.45-1.77-.34-2.08.23l-12,22.52c-.31.58.12,1.41,1,1.85s1.77.34,2.08-.23l12-22.52C74.68,106.44,74.24,105.61,73.41,105.17Z"/><path class="cls-24" d="M83.66,109.43c-.93-.22-1.8.12-2,.76L76,135.05c-.15.63.49,1.32,1.41,1.54s1.8-.13,1.94-.77L85.07,111C85.21,110.33,84.58,109.64,83.66,109.43Z"/><polyline class="cls-25" points="88.14 68.02 88.14 83.67 97.7 61.06"/><text class="cls-26" transform="translate(163.65 126.2)">Afya</text><text class="cls-27" transform="translate(385.2 52.25)"><tspan class="cls-28">T</tspan><tspan x="33.38" y="0">ime</tspan></text></svg>